# xmcd
#
# Track frame offsets:
#	150
#	13820
#	27833
#	40766
#	55684
#	69907
#	86207
#	102825
#	119600
#	133538
#	150926
#	163684
#	181327
#	199517
#	214372
#	227185
#	243690
#	259720
#	274033
#	291158
#	305433
#
# Disc length: 4312 seconds
#
# Revision: 1
# Processed by: cddbd v1.5.2PL0 Copyright (c) Steve Scherf et al.
# Submitted via: audiograbber 1.83.01
#
DISCID=2710d615
DTITLE=Various Artist - Halland's Country Hits Volume 1
DYEAR=1900
DGENRE=
TTITLE0=John Anderson - Money In The Bank
TTITLE1=John Anderson - Seminole Wind
TTITLE2=John Anderson - Straight Tequila Night
TTITLE3=John Anderson - When It Comes To You
TTITLE4=Moe Bandy - Till I'm Too Old To Die Young
TTITLE5=Bellamy Brothers - Crazy From The Heart
TTITLE6=Bellamy Brothers - Feelin' The Feelin'
TTITLE7=Clint Black With Wynonna - A Bad Goodbye
TTITLE8=Clint Black - A Better Man
TTITLE9=Clint Black - Burn One Down
TTITLE10=Clint Black - Killin' Time
TTITLE11=Clint Black - Loving Blind
TTITLE12=Clint Black - No Time To Kill
TTITLE13=Clint Black - Put Yourself In My Shoes
TTITLE14=Clint Black - Walkin' Away
TTITLE15=Clint Black - We Tell Ourselves
TTITLE16=Clint Black - When My Ship Comes In
TTITLE17=Clint Black - Where Are You Now
TTITLE18=Suzy Bogguss - Aces
TTITLE19=Suzy Bogguss - Drive South
TTITLE20=Suzy Bogguss - Letting Go
EXTD=
EXTT0=
EXTT1=
EXTT2=
EXTT3=
EXTT4=
EXTT5=
EXTT6=
EXTT7=
EXTT8=
EXTT9=
EXTT10=
EXTT11=
EXTT12=
EXTT13=
EXTT14=
EXTT15=
EXTT16=
EXTT17=
EXTT18=
EXTT19=
EXTT20=
PLAYORDER=
